<mxfile host="Electron" agent="Mozilla/5.0 (Windows NT 10.0; Win64; x64) AppleWebKit/537.36 (KHTML, like Gecko) draw.io/24.7.17 Chrome/128.0.6613.36 Electron/32.0.1 Safari/537.36" version="24.7.17">
  <diagram name="Page-1" id="QuC0YGXa8IvMpPQQBcSU">
    <mxGraphModel dx="2074" dy="1196" grid="1" gridSize="10" guides="1" tooltips="1" connect="1" arrows="1" fold="1" page="1" pageScale="1" pageWidth="850" pageHeight="1100" math="0" shadow="0">
      <root>
        <mxCell id="0" />
        <mxCell id="1" parent="0" />
        <mxCell id="5Jj4woaWKfMn611ZWiB8-8" value="" style="group" parent="1" vertex="1" connectable="0">
          <mxGeometry x="10" y="60" width="830" height="990" as="geometry" />
        </mxCell>
        <mxCell id="5Jj4woaWKfMn611ZWiB8-9" value="StealthGameWPF" style="shape=folder;xSize=90;align=left;spacingLeft=10;align=left;verticalAlign=top;spacingLeft=5;spacingTop=-4;tabWidth=130;tabHeight=20;tabPosition=left;html=1;recursiveResize=0;" parent="5Jj4woaWKfMn611ZWiB8-8" vertex="1">
          <mxGeometry width="829.9999999999999" height="990" as="geometry" />
        </mxCell>
        <mxCell id="0tbEQ6e22UGZv4pJAnpX-16" value="" style="group" parent="5Jj4woaWKfMn611ZWiB8-8" vertex="1" connectable="0">
          <mxGeometry x="150" y="800" width="220" height="180" as="geometry" />
        </mxCell>
        <mxCell id="0tbEQ6e22UGZv4pJAnpX-17" value="Persistence" style="shape=folder;xSize=90;align=left;spacingLeft=10;align=left;verticalAlign=top;spacingLeft=5;spacingTop=-4;tabWidth=80;tabHeight=20;tabPosition=left;html=1;recursiveResize=0;" parent="0tbEQ6e22UGZv4pJAnpX-16" vertex="1">
          <mxGeometry width="219.99999999999997" height="150.00000000000003" as="geometry" />
        </mxCell>
        <mxCell id="0tbEQ6e22UGZv4pJAnpX-18" value="&amp;nbsp; ITextFileManager&lt;div&gt;&amp;nbsp; TextFileManager&lt;/div&gt;&lt;div&gt;&amp;nbsp; AssetTextFileManager&lt;/div&gt;&lt;div&gt;&amp;nbsp; FileManagerFactory&lt;/div&gt;&lt;div&gt;&amp;nbsp; FileLocator&lt;/div&gt;&lt;div&gt;&amp;nbsp; KVP&lt;/div&gt;" style="text;html=1;align=left;verticalAlign=middle;whiteSpace=wrap;rounded=0;" parent="0tbEQ6e22UGZv4pJAnpX-16" vertex="1">
          <mxGeometry y="35" width="220" height="110" as="geometry" />
        </mxCell>
        <mxCell id="0tbEQ6e22UGZv4pJAnpX-19" value="" style="group" parent="5Jj4woaWKfMn611ZWiB8-8" vertex="1" connectable="0">
          <mxGeometry x="70" y="220" width="240" height="130" as="geometry" />
        </mxCell>
        <mxCell id="0tbEQ6e22UGZv4pJAnpX-20" value="View" style="shape=folder;xSize=90;align=left;spacingLeft=10;align=left;verticalAlign=top;spacingLeft=5;spacingTop=-4;tabWidth=70;tabHeight=20;tabPosition=left;html=1;recursiveResize=0;" parent="0tbEQ6e22UGZv4pJAnpX-19" vertex="1">
          <mxGeometry width="239.99999999999994" height="130.00000000000003" as="geometry" />
        </mxCell>
        <mxCell id="0tbEQ6e22UGZv4pJAnpX-21" value="&amp;nbsp;MainWindow&lt;div&gt;&amp;nbsp;MainView&lt;br&gt;&lt;div&gt;&amp;nbsp;MainMenu&lt;/div&gt;&lt;div&gt;&amp;nbsp;LevelSelector&lt;/div&gt;&lt;div&gt;&amp;nbsp;PauseMenu&lt;/div&gt;&lt;div&gt;&amp;nbsp;Game&lt;/div&gt;&lt;/div&gt;" style="text;html=1;align=left;verticalAlign=middle;whiteSpace=wrap;rounded=0;" parent="0tbEQ6e22UGZv4pJAnpX-19" vertex="1">
          <mxGeometry y="21.66666666666667" width="239.99999999999994" height="108.33333333333336" as="geometry" />
        </mxCell>
        <mxCell id="0tbEQ6e22UGZv4pJAnpX-1" value="" style="group" parent="5Jj4woaWKfMn611ZWiB8-8" vertex="1" connectable="0">
          <mxGeometry x="60" y="440" width="250" height="180" as="geometry" />
        </mxCell>
        <mxCell id="0tbEQ6e22UGZv4pJAnpX-2" value="ViewModels" style="shape=folder;xSize=90;align=left;spacingLeft=10;align=left;verticalAlign=top;spacingLeft=5;spacingTop=-4;tabWidth=90;tabHeight=20;tabPosition=left;html=1;recursiveResize=0;" parent="0tbEQ6e22UGZv4pJAnpX-1" vertex="1">
          <mxGeometry width="250" height="180" as="geometry" />
        </mxCell>
        <mxCell id="0tbEQ6e22UGZv4pJAnpX-3" value="&amp;nbsp; DelegateCommand&lt;div&gt;&amp;nbsp; ViewModelBase&lt;/div&gt;&lt;div&gt;&amp;nbsp; GameState&lt;/div&gt;&lt;div&gt;&amp;nbsp; MainWindowViewModel&lt;/div&gt;&lt;div&gt;&amp;nbsp; MainMenuViewModel&lt;/div&gt;&lt;div&gt;&amp;nbsp; LevelSelectorViewModel&lt;/div&gt;&lt;div&gt;&amp;nbsp; PauseMenuViewModel&lt;/div&gt;&lt;div&gt;&amp;nbsp; StealthGameViewModel&lt;/div&gt;" style="text;html=1;align=left;verticalAlign=middle;whiteSpace=wrap;rounded=0;" parent="0tbEQ6e22UGZv4pJAnpX-1" vertex="1">
          <mxGeometry y="30" width="250" height="150.00000000000003" as="geometry" />
        </mxCell>
        <mxCell id="0tbEQ6e22UGZv4pJAnpX-22" value="" style="endArrow=classic;dashed=1;html=1;dashPattern=1 3;strokeWidth=2;rounded=0;exitX=0.5;exitY=0;exitDx=0;exitDy=0;entryX=0.5;entryY=1;entryDx=0;entryDy=0;endFill=1;" parent="5Jj4woaWKfMn611ZWiB8-8" source="0tbEQ6e22UGZv4pJAnpX-3" target="0tbEQ6e22UGZv4pJAnpX-21" edge="1">
          <mxGeometry width="50" height="50" relative="1" as="geometry">
            <mxPoint x="390" y="560" as="sourcePoint" />
            <mxPoint x="440" y="510" as="targetPoint" />
          </mxGeometry>
        </mxCell>
        <mxCell id="0tbEQ6e22UGZv4pJAnpX-23" value="&amp;lt;Imports&amp;gt;" style="edgeLabel;html=1;align=center;verticalAlign=middle;resizable=0;points=[];" parent="0tbEQ6e22UGZv4pJAnpX-22" vertex="1" connectable="0">
          <mxGeometry x="-0.1453" y="1" relative="1" as="geometry">
            <mxPoint as="offset" />
          </mxGeometry>
        </mxCell>
        <mxCell id="0tbEQ6e22UGZv4pJAnpX-4" value="" style="group" parent="1" vertex="1" connectable="0">
          <mxGeometry x="470" y="410" width="360" height="432" as="geometry" />
        </mxCell>
        <mxCell id="0tbEQ6e22UGZv4pJAnpX-5" value="Model" style="shape=folder;xSize=90;align=left;spacingLeft=10;align=left;verticalAlign=top;spacingLeft=5;spacingTop=-4;tabWidth=70;tabHeight=20;tabPosition=left;html=1;recursiveResize=0;" parent="0tbEQ6e22UGZv4pJAnpX-4" vertex="1">
          <mxGeometry width="360" height="429.2307692307693" as="geometry" />
        </mxCell>
        <mxCell id="0tbEQ6e22UGZv4pJAnpX-6" value="&amp;nbsp;Level" style="text;html=1;align=left;verticalAlign=middle;whiteSpace=wrap;rounded=0;" parent="0tbEQ6e22UGZv4pJAnpX-4" vertex="1">
          <mxGeometry x="15" y="20.67649546827795" width="360" height="31.323262839879163" as="geometry" />
        </mxCell>
        <mxCell id="0tbEQ6e22UGZv4pJAnpX-7" value="" style="group" parent="0tbEQ6e22UGZv4pJAnpX-4" vertex="1" connectable="0">
          <mxGeometry x="45" y="52.0011049723757" width="220" height="179.00552486187848" as="geometry" />
        </mxCell>
        <mxCell id="0tbEQ6e22UGZv4pJAnpX-8" value="Entites" style="shape=folder;xSize=90;align=left;spacingLeft=10;align=left;verticalAlign=top;spacingLeft=5;spacingTop=-4;tabWidth=70;tabHeight=20;tabPosition=left;html=1;recursiveResize=0;" parent="0tbEQ6e22UGZv4pJAnpX-7" vertex="1">
          <mxGeometry width="219.99999999999997" height="109.67468411477027" as="geometry" />
        </mxCell>
        <mxCell id="0tbEQ6e22UGZv4pJAnpX-9" value="&lt;i&gt;&amp;nbsp;LevelEntity&lt;/i&gt;&lt;div&gt;&amp;nbsp;Player&lt;/div&gt;&lt;div&gt;&amp;nbsp;Guard&lt;/div&gt;" style="text;html=1;align=left;verticalAlign=middle;whiteSpace=wrap;rounded=0;" parent="0tbEQ6e22UGZv4pJAnpX-7" vertex="1">
          <mxGeometry y="18.28839779005525" width="220" height="86.1314917127072" as="geometry" />
        </mxCell>
        <mxCell id="0tbEQ6e22UGZv4pJAnpX-10" value="" style="group" parent="0tbEQ6e22UGZv4pJAnpX-4" vertex="1" connectable="0">
          <mxGeometry x="45" y="182.00486187845303" width="220" height="97.43867403314918" as="geometry" />
        </mxCell>
        <mxCell id="0tbEQ6e22UGZv4pJAnpX-11" value="Floors" style="shape=folder;xSize=90;align=left;spacingLeft=10;align=left;verticalAlign=top;spacingLeft=5;spacingTop=-4;tabWidth=70;tabHeight=20;tabPosition=left;html=1;recursiveResize=0;" parent="0tbEQ6e22UGZv4pJAnpX-10" vertex="1">
          <mxGeometry width="219.99999999999997" height="97.43867403314918" as="geometry" />
        </mxCell>
        <mxCell id="0tbEQ6e22UGZv4pJAnpX-12" value="&amp;nbsp;Floor&lt;div&gt;&amp;nbsp;Wall&lt;/div&gt;&lt;div&gt;&amp;nbsp;Exit&lt;/div&gt;" style="text;html=1;align=left;verticalAlign=middle;whiteSpace=wrap;rounded=0;" parent="0tbEQ6e22UGZv4pJAnpX-10" vertex="1">
          <mxGeometry y="16.239779005524866" width="219.99999999999997" height="81.19889502762435" as="geometry" />
        </mxCell>
        <mxCell id="0tbEQ6e22UGZv4pJAnpX-13" value="" style="group" parent="0tbEQ6e22UGZv4pJAnpX-4" vertex="1" connectable="0">
          <mxGeometry x="45" y="300" width="220" height="107.6" as="geometry" />
        </mxCell>
        <mxCell id="0tbEQ6e22UGZv4pJAnpX-14" value="Utils" style="shape=folder;xSize=90;align=left;spacingLeft=10;align=left;verticalAlign=top;spacingLeft=5;spacingTop=-4;tabWidth=70;tabHeight=20;tabPosition=left;html=1;recursiveResize=0;" parent="0tbEQ6e22UGZv4pJAnpX-13" vertex="1">
          <mxGeometry width="219.99999999999997" height="107.59999999999997" as="geometry" />
        </mxCell>
        <mxCell id="0tbEQ6e22UGZv4pJAnpX-15" value="&amp;nbsp;Direction&lt;div&gt;&amp;nbsp;DirExt&lt;/div&gt;&lt;div&gt;&amp;nbsp;EventArgsWithEntity&lt;/div&gt;&lt;div&gt;&lt;br&gt;&lt;/div&gt;" style="text;html=1;align=left;verticalAlign=middle;whiteSpace=wrap;rounded=0;" parent="0tbEQ6e22UGZv4pJAnpX-13" vertex="1">
          <mxGeometry y="17.933333333333334" width="219.99999999999997" height="89.66666666666667" as="geometry" />
        </mxCell>
        <mxCell id="0tbEQ6e22UGZv4pJAnpX-24" value="" style="endArrow=none;dashed=1;html=1;dashPattern=1 3;strokeWidth=2;rounded=0;exitX=0;exitY=0;exitDx=0;exitDy=326.92307692307696;entryX=1;entryY=0.25;entryDx=0;entryDy=0;endFill=0;exitPerimeter=0;startArrow=classic;startFill=1;" parent="1" source="0tbEQ6e22UGZv4pJAnpX-5" target="0tbEQ6e22UGZv4pJAnpX-18" edge="1">
          <mxGeometry width="50" height="50" relative="1" as="geometry">
            <mxPoint x="415" y="890" as="sourcePoint" />
            <mxPoint x="380" y="700" as="targetPoint" />
          </mxGeometry>
        </mxCell>
        <mxCell id="0tbEQ6e22UGZv4pJAnpX-25" value="&amp;lt;Imports&amp;gt;" style="edgeLabel;html=1;align=center;verticalAlign=middle;resizable=0;points=[];" parent="0tbEQ6e22UGZv4pJAnpX-24" vertex="1" connectable="0">
          <mxGeometry x="-0.1453" y="1" relative="1" as="geometry">
            <mxPoint as="offset" />
          </mxGeometry>
        </mxCell>
        <mxCell id="0tbEQ6e22UGZv4pJAnpX-26" value="" style="endArrow=classic;dashed=1;html=1;dashPattern=1 3;strokeWidth=2;rounded=0;exitX=0;exitY=0;exitDx=0;exitDy=224.61538461538464;entryX=1;entryY=0.5;entryDx=0;entryDy=0;endFill=1;exitPerimeter=0;" parent="1" source="0tbEQ6e22UGZv4pJAnpX-5" target="0tbEQ6e22UGZv4pJAnpX-3" edge="1">
          <mxGeometry width="50" height="50" relative="1" as="geometry">
            <mxPoint x="443" y="750" as="sourcePoint" />
            <mxPoint x="408" y="560" as="targetPoint" />
          </mxGeometry>
        </mxCell>
        <mxCell id="0tbEQ6e22UGZv4pJAnpX-27" value="&amp;lt;Imports&amp;gt;" style="edgeLabel;html=1;align=center;verticalAlign=middle;resizable=0;points=[];" parent="0tbEQ6e22UGZv4pJAnpX-26" vertex="1" connectable="0">
          <mxGeometry x="-0.1453" y="1" relative="1" as="geometry">
            <mxPoint as="offset" />
          </mxGeometry>
        </mxCell>
        <mxCell id="0tbEQ6e22UGZv4pJAnpX-28" value="" style="endArrow=classic;dashed=1;html=1;dashPattern=1 3;strokeWidth=2;rounded=0;entryX=0.5;entryY=1;entryDx=0;entryDy=0;endFill=1;" parent="1" target="0tbEQ6e22UGZv4pJAnpX-3" edge="1">
          <mxGeometry width="50" height="50" relative="1" as="geometry">
            <mxPoint x="270" y="870" as="sourcePoint" />
            <mxPoint x="425" y="820" as="targetPoint" />
          </mxGeometry>
        </mxCell>
        <mxCell id="0tbEQ6e22UGZv4pJAnpX-29" value="&amp;lt;Imports&amp;gt;" style="edgeLabel;html=1;align=center;verticalAlign=middle;resizable=0;points=[];" parent="0tbEQ6e22UGZv4pJAnpX-28" vertex="1" connectable="0">
          <mxGeometry x="-0.1453" y="1" relative="1" as="geometry">
            <mxPoint as="offset" />
          </mxGeometry>
        </mxCell>
        <mxCell id="5Jj4woaWKfMn611ZWiB8-1" value="" style="group" parent="1" vertex="1" connectable="0">
          <mxGeometry x="300" y="140" width="220" height="60" as="geometry" />
        </mxCell>
        <mxCell id="5Jj4woaWKfMn611ZWiB8-2" value="App" style="shape=folder;xSize=90;align=left;spacingLeft=10;align=left;verticalAlign=top;spacingLeft=5;spacingTop=-4;tabWidth=70;tabHeight=20;tabPosition=left;html=1;recursiveResize=0;" parent="5Jj4woaWKfMn611ZWiB8-1" vertex="1">
          <mxGeometry width="219.99999999999997" height="60" as="geometry" />
        </mxCell>
        <mxCell id="5Jj4woaWKfMn611ZWiB8-3" value="&amp;nbsp;App" style="text;html=1;align=left;verticalAlign=middle;whiteSpace=wrap;rounded=0;" parent="5Jj4woaWKfMn611ZWiB8-1" vertex="1">
          <mxGeometry y="10" width="219.99999999999997" height="50.00000000000001" as="geometry" />
        </mxCell>
        <mxCell id="5Jj4woaWKfMn611ZWiB8-4" value="" style="endArrow=classic;dashed=1;html=1;dashPattern=1 3;strokeWidth=2;rounded=0;exitX=0.75;exitY=0;exitDx=0;exitDy=0;entryX=0.25;entryY=1;entryDx=0;entryDy=0;endFill=1;" parent="1" source="0tbEQ6e22UGZv4pJAnpX-21" target="5Jj4woaWKfMn611ZWiB8-3" edge="1">
          <mxGeometry width="50" height="50" relative="1" as="geometry">
            <mxPoint x="230" y="670" as="sourcePoint" />
            <mxPoint x="230" y="470" as="targetPoint" />
          </mxGeometry>
        </mxCell>
        <mxCell id="5Jj4woaWKfMn611ZWiB8-5" value="&amp;lt;uses&amp;gt;" style="edgeLabel;html=1;align=center;verticalAlign=middle;resizable=0;points=[];" parent="5Jj4woaWKfMn611ZWiB8-4" vertex="1" connectable="0">
          <mxGeometry x="-0.1453" y="1" relative="1" as="geometry">
            <mxPoint as="offset" />
          </mxGeometry>
        </mxCell>
        <mxCell id="5Jj4woaWKfMn611ZWiB8-6" value="" style="endArrow=classic;dashed=1;html=1;dashPattern=1 3;strokeWidth=2;rounded=0;exitX=1;exitY=0;exitDx=0;exitDy=0;entryX=0.75;entryY=1;entryDx=0;entryDy=0;endFill=1;" parent="1" source="0tbEQ6e22UGZv4pJAnpX-3" target="5Jj4woaWKfMn611ZWiB8-3" edge="1">
          <mxGeometry width="50" height="50" relative="1" as="geometry">
            <mxPoint x="240" y="680" as="sourcePoint" />
            <mxPoint x="240" y="480" as="targetPoint" />
          </mxGeometry>
        </mxCell>
        <mxCell id="5Jj4woaWKfMn611ZWiB8-7" value="&amp;lt;uses&amp;gt;" style="edgeLabel;html=1;align=center;verticalAlign=middle;resizable=0;points=[];" parent="5Jj4woaWKfMn611ZWiB8-6" vertex="1" connectable="0">
          <mxGeometry x="-0.1453" y="1" relative="1" as="geometry">
            <mxPoint as="offset" />
          </mxGeometry>
        </mxCell>
      </root>
    </mxGraphModel>
  </diagram>
</mxfile>
